<?xml version="1.0" encoding="UTF-8" standalone="no"?>
<!-- Created with Inkscape (http://www.inkscape.org/) -->

<svg
   version="1.1"
   id="svg11000"
   width="959.76196"
   height="959.83118"
   viewBox="0 0 959.76196 959.83118"
   sodipodi:docname="Instagram.svg"
   inkscape:version="1.2.2 (b0a8486541, 2022-12-01)"
   xmlns:inkscape="http://www.inkscape.org/namespaces/inkscape"
   xmlns:sodipodi="http://sodipodi.sourceforge.net/DTD/sodipodi-0.dtd"
   xmlns="http://www.w3.org/2000/svg"
   xmlns:svg="http://www.w3.org/2000/svg">
  <defs
     id="defs11004" />
  <sodipodi:namedview
     id="namedview11002"
     pagecolor="#ffffff"
     bordercolor="#cccccc"
     borderopacity="1"
     inkscape:showpageshadow="0"
     inkscape:pageopacity="1"
     inkscape:pagecheckerboard="0"
     inkscape:deskcolor="#d1d1d1"
     showgrid="false"
     inkscape:zoom="0.086915209"
     inkscape:cx="-3307.8216"
     inkscape:cy="-281.88392"
     inkscape:window-width="1854"
     inkscape:window-height="1131"
     inkscape:window-x="0"
     inkscape:window-y="0"
     inkscape:window-maximized="1"
     inkscape:current-layer="g11006" />
  <g
     inkscape:groupmode="layer"
     inkscape:label="Image"
     id="g11006"
     transform="translate(1021.9559,654.43081)">
    <path
       style="fill:#2563eb;fill-opacity:0.996078"
       d="m -802.58944,304.87525 c -51.92821,-4.13047 -74.36101,-9.32053 -104,-24.06148 -21.20699,-10.5473 -38.12788,-23.00874 -55.57144,-40.92577 -32.51099,-33.39342 -49.50602,-70.82761 -57.59332,-126.85838 -1.5999,-11.08512 -1.7587,-31.822499 -2.0823,-272 -0.355,-263.43956 -0.098,-287.57828 3.2985,-310.5 3.7921,-25.5879 10.0837,-47.21864 19.34216,-66.5 11.13089,-23.1807 22.54046,-39.14746 41.08851,-57.5 29.62701,-29.3147 68.09719,-48.6732 111.1732,-55.9431 30.37827,-5.1269 23.76719,-5.0158 298.34469,-5.0173 149.87763,-8e-4 263.12756,0.3943 273.19388,0.9531 38.51763,2.1383 67.62654,8.957 95.80612,22.4426 60.29194,28.8531 100.307539,82.57422 112.896929,151.5647 4.77538,26.16933 4.70491,21.12497 4.35882,312 -0.35465,298.07835 0.0648,276.25956 -5.8727,305.5 -4.42451,21.78954 -15.65868,49.9204 -27.64339,69.22032 -16.013779,25.78823 -40.400259,49.91077 -66.385379,65.66686 -30.78088,18.664 -65.70326,28.36644 -113.68383,31.58463 -13.75732,0.92274 -515.29404,1.27872 -526.67045,0.37382 z m 383,-124.34268 c 51.47178,-1.87466 72.96313,-4.80549 99.93523,-13.6284 29.99445,-9.81156 52.72128,-23.60083 74.04874,-44.92829 21.5233,-21.5233 34.9853,-43.549819 44.93569,-73.523779 13.27814,-39.9982404 14.95426,-64.97473 14.95987,-222.922481 0.004,-111.35055 -0.74458,-143.74366 -3.97415,-171.98253 -7.12461,-62.29668 -31.31606,-108.13402 -74.42638,-141.02122 -26.55143,-20.25507 -60.81878,-33.37389 -100.479,-38.46713 -25.25144,-3.24283 -44.13572,-3.75429 -156.5,-4.23867 -145.93969,-0.62911 -183.37039,0.61671 -216.28893,7.1988 -41.95171,8.38829 -73.86618,24.82715 -101.13042,52.0914 -36.53218,36.53217 -53.20289,79.18948 -57.80768,147.91935 -1.80548,26.94805 -1.80319,269.146961 0.003,295.895341 2.78537,41.25409 7.97508,65.92335 19.48139,92.60466 9.9145,22.99016 20.1045,37.666469 39.60902,57.047519 21.40176,21.2663 43.32341,34.55053 73.16497,44.33703 27.36011,8.9727 53.25492,12.33096 107.46885,13.93748 26.19916,0.77636 213.86003,0.52371 237,-0.31908 z m -210.5,-62.98086 c -64.48305,-1.01163 -86.79326,-2.95432 -109.5,-9.53482 -45.3652,-13.147019 -75.69734,-45.168539 -87.06689,-91.916159 -6.9481,-28.56815 -7.92171,-52.01054 -7.9148,-190.571111 0.007,-134.39605 0.88707,-158.30317 6.86783,-186.5 9.73485,-45.8958 37.69163,-78.92836 79.11386,-93.47762 32.64951,-11.46791 49.93953,-12.52574 204.5,-12.51172 156.63724,0.0142 175.59295,1.12481 207.34372,12.148 20.27266,7.03823 34.07857,15.77696 48.25619,30.54469 17.20077,17.91673 27.28333,38.22595 32.86268,66.1951 5.7511,28.83006 6.85836,65.14282 6.23876,204.60155 -0.489,110.061491 -1.02511,128.974211 -4.29454,151.5000006 -7.0142,48.3266204 -29.67384,82.4245204 -67.06288,100.9152604 -22.50983,11.132239 -45.057,15.624469 -87.84393,17.501769 -31.45941,1.38031 -162.33618,2.03325 -221.5,1.10506 z M -529.69448,7.5102406 c 58.11484,-4.19009 107.99946,-33.1890096 140.16485,-81.4806196 48.98241,-73.539921 37.77445,-171.383901 -26.68999,-233.000001 -57.86495,-55.3082 -146.65983,-66.1004 -216.24805,-26.28294 -68.40309,39.13934 -104.05958,117.79068 -88.53127,195.28294 10.86177,54.204431 47.26857,101.487041 97.4095,126.508641 22.04255,10.99979955 44.41261,17.2859396 67.3979,18.9392896 5.83115,0.41943 11.0521,0.82379 11.6021,0.89856 0.55,0.0748 7.25273,-0.31487 14.89496,-0.86587 z m -32.89496,-64.5881896 c -57.01028,-10.17701 -98.5,-59.605471 -98.5,-117.347201 0,-54.62236 36.64676,-101.88249 89.70604,-115.68606 12.09857,-3.14749 33.63525,-4.27045 46.32249,-2.41533 18.58164,2.717 40.18016,11.52385 54.18566,22.09435 46.0196,34.73278 61.21673,96.43106 36.33463,147.51358 -17.05833,35.020441 -49.08798,59.300451 -86.93419,65.900281 -10.90226,1.90119 -30.28789,1.87308 -41.11463,-0.0596 z m 219.70078,-266.516811 c 10.6016,-2.24942 19.74446,-8.1599 25.88299,-16.73225 14.91369,-20.82673 7.66963,-50.65749 -15.09178,-62.14742 -25.02931,-12.63475 -54.80257,1.65469 -60.59551,29.08234 -6.21812,29.44075 20.38443,56.03958 49.8043,49.79733 z"
       id="path13154" />
  </g>
</svg>
