<?xml version="1.0" encoding="UTF-8" standalone="no"?>
<!-- Created with Inkscape (http://www.inkscape.org/) -->

<svg
   width="69.911583mm"
   height="74.083336mm"
   viewBox="0 0 69.911584 74.083333"
   version="1.1"
   id="svg6482"
   sodipodi:docname="logo-app-white-400.svg"
   inkscape:version="1.2.2 (b0a8486541, 2022-12-01)"
   xmlns:inkscape="http://www.inkscape.org/namespaces/inkscape"
   xmlns:sodipodi="http://sodipodi.sourceforge.net/DTD/sodipodi-0.dtd"
   xmlns="http://www.w3.org/2000/svg"
   xmlns:svg="http://www.w3.org/2000/svg">
  <sodipodi:namedview
     id="namedview6484"
     pagecolor="#ffffff"
     bordercolor="#cccccc"
     borderopacity="1"
     inkscape:showpageshadow="0"
     inkscape:pageopacity="1"
     inkscape:pagecheckerboard="0"
     inkscape:deskcolor="#d1d1d1"
     inkscape:document-units="mm"
     showgrid="false"
     inkscape:zoom="0.83438604"
     inkscape:cx="249.88433"
     inkscape:cy="393.70266"
     inkscape:window-width="1854"
     inkscape:window-height="1131"
     inkscape:window-x="0"
     inkscape:window-y="0"
     inkscape:window-maximized="1"
     inkscape:current-layer="layer1" />
  <defs
     id="defs6479" />
  <g
     inkscape:label="Capa 1"
     inkscape:groupmode="layer"
     id="layer1"
     transform="translate(-145.60005,59.848151)">
    <g
       aria-label="stats"
       id="text3136"
       style="font-size:3.175px;fill:#ffffff;fill-opacity:1;stroke-width:3"
       transform="matrix(7.9047209,0,0,8.0049786,-163.86454,-444.54384)">
      <path
         d="m 40.383365,52.305375 v 0.269751 q -0.120923,-0.06201 -0.251148,-0.09302 -0.130224,-0.03101 -0.269751,-0.03101 -0.21239,0 -0.31936,0.06511 -0.10542,0.06511 -0.10542,0.195337 0,0.09922 0.07597,0.156579 0.07596,0.05581 0.305407,0.10697 l 0.09767,0.0217 q 0.303857,0.06511 0.430981,0.184484 0.128674,0.117823 0.128674,0.330213 0,0.241846 -0.192236,0.382922 -0.190686,0.141077 -0.525549,0.141077 -0.139527,0 -0.291455,-0.02791 -0.150379,-0.02635 -0.31781,-0.08062 v -0.294555 q 0.15813,0.08216 0.311609,0.124023 0.153479,0.04031 0.303857,0.04031 0.201538,0 0.310059,-0.06821 0.10852,-0.06976 0.10852,-0.195337 0,-0.116272 -0.07906,-0.178284 -0.07751,-0.06201 -0.342615,-0.119372 l -0.09922,-0.02325 q -0.2651,-0.05581 -0.382923,-0.170532 -0.117822,-0.116272 -0.117822,-0.31781 0,-0.244946 0.173633,-0.378271 0.173633,-0.133326 0.492993,-0.133326 0.15813,0 0.297656,0.02326 0.139527,0.02325 0.257349,0.06976 z"
         style="font-family:'DejaVu Sans';-inkscape-font-specification:'DejaVu Sans';fill:#ffffff;fill-opacity:1"
         id="path3188" />
      <path
         d="m 41.212772,48.057055 v 3.667993 h 2.393607 v 0.221692 h -2.393607 v 1.471745 c 0,0.141593 0.01912,0.232544 0.05736,0.272852 0.03927,0.04031 0.118338,0.06046 0.237195,0.06046 h 0.293006 v 0.238745 h -0.293006 c -0.220141,0 -0.37207,-0.04082 -0.455786,-0.122473 -0.08372,-0.08268 -0.125574,-0.232544 -0.125574,-0.449585 v -1.471745 h -0.738456 v -0.221692 h 0.738456 v -3.667993 z"
         style="font-family:'DejaVu Sans';-inkscape-font-specification:'DejaVu Sans';fill:#ffffff;fill-opacity:1"
         id="path3190"
         sodipodi:nodetypes="cccccscsccscscccccc" />
      <path
         d="m 42.964603,53.117728 q -0.345716,0 -0.479041,0.07906 -0.133325,0.07906 -0.133325,0.269751 0,0.151929 0.09922,0.241846 0.100769,0.08837 0.272851,0.08837 0.237195,0 0.379822,-0.167432 0.144177,-0.168982 0.144177,-0.448035 v -0.06356 z m 0.568957,-0.117822 v 0.990637 h -0.285254 v -0.263549 q -0.09767,0.158129 -0.243396,0.234094 -0.145727,0.07441 -0.356567,0.07441 -0.266651,0 -0.42478,-0.148828 -0.15658,-0.150379 -0.15658,-0.401526 0,-0.293006 0.195337,-0.441834 0.196887,-0.148828 0.586011,-0.148828 h 0.399975 v -0.02791 q 0,-0.196887 -0.130224,-0.303857 -0.128675,-0.108521 -0.362769,-0.108521 -0.148828,0 -0.289905,0.03566 -0.141076,0.03566 -0.271301,0.10697 v -0.26355 q 0.15658,-0.06046 0.303857,-0.08992 0.147278,-0.03101 0.286805,-0.03101 0.376721,0 0.562756,0.195337 0.186035,0.195337 0.186035,0.592212 z"
         style="font-family:'DejaVu Sans';-inkscape-font-specification:'DejaVu Sans';fill:#ffffff;fill-opacity:1"
         id="path3192" />
      <path
         d="m 44.403275,48.057055 v 3.667993 h 0.587561 v 0.221692 h -0.587561 v 1.471745 c 0,0.141593 0.01912,0.232544 0.05736,0.272852 0.03927,0.04031 0.118338,0.06046 0.237195,0.06046 h 0.293006 v 0.238745 H 44.69783 c -0.220141,0 -0.37207,-0.04082 -0.455786,-0.122473 -0.08372,-0.08268 -0.125574,-0.232544 -0.125574,-0.449585 v -1.471745 h -0.209289 v -0.221692 h 0.209289 v -3.667993 z"
         style="font-family:'DejaVu Sans';-inkscape-font-specification:'DejaVu Sans';fill:#ffffff;fill-opacity:1"
         id="path3194"
         sodipodi:nodetypes="cccccscsccscscccccc" />
      <path
         d="m 46.472915,52.305375 v 0.269751 q -0.120923,-0.06201 -0.251147,-0.09302 -0.130225,-0.03101 -0.269751,-0.03101 -0.21239,0 -0.31936,0.06511 -0.10542,0.06511 -0.10542,0.195337 0,0.09922 0.07596,0.156579 0.07596,0.05581 0.305408,0.10697 l 0.09767,0.0217 q 0.303858,0.06511 0.430982,0.184484 0.128674,0.117823 0.128674,0.330213 0,0.241846 -0.192236,0.382922 -0.190686,0.141077 -0.52555,0.141077 -0.139526,0 -0.291455,-0.02791 -0.150378,-0.02635 -0.31781,-0.08062 v -0.294555 q 0.15813,0.08216 0.311609,0.124023 0.153479,0.04031 0.303857,0.04031 0.201539,0 0.310059,-0.06821 0.108521,-0.06976 0.108521,-0.195337 0,-0.116272 -0.07906,-0.178284 -0.07751,-0.06201 -0.342615,-0.119372 l -0.09922,-0.02325 q -0.2651,-0.05581 -0.382922,-0.170532 -0.117822,-0.116272 -0.117822,-0.31781 0,-0.244946 0.173632,-0.378271 0.173633,-0.133326 0.492993,-0.133326 0.15813,0 0.297657,0.02326 0.139526,0.02325 0.257348,0.06976 z"
         style="font-family:'DejaVu Sans';-inkscape-font-specification:'DejaVu Sans';fill:#ffffff;fill-opacity:1"
         id="path3196" />
      <text
         xml:space="preserve"
         style="font-style:normal;font-variant:normal;font-weight:normal;font-stretch:normal;font-size:3.17495px;font-family:'DejaVu Sans';-inkscape-font-specification:'DejaVu Sans';fill:#ffffff;fill-opacity:1;stroke-width:11.3384"
         x="38.860989"
         y="52.68261"
         id="text3201"><tspan
           sodipodi:role="line"
           id="tspan3199"
           style="fill:#ffffff;fill-opacity:1;stroke-width:11.3384"
           x="38.860989"
           y="52.68261" /><tspan
           sodipodi:role="line"
           style="fill:#ffffff;fill-opacity:1;stroke-width:11.3384"
           x="38.860989"
           y="56.651299"
           id="tspan3307">rugby</tspan></text>
    </g>
  </g>
</svg>
