<?xml version="1.0" encoding="UTF-8" standalone="no"?>
<!-- Created with Inkscape (http://www.inkscape.org/) -->

<svg
   version="1.1"
   id="svg2298"
   width="261.99423"
   height="203.99219"
   viewBox="0 0 261.99423 203.99219"
   sodipodi:docname="notebook.svg"
   inkscape:version="1.2.2 (b0a8486541, 2022-12-01)"
   xmlns:inkscape="http://www.inkscape.org/namespaces/inkscape"
   xmlns:sodipodi="http://sodipodi.sourceforge.net/DTD/sodipodi-0.dtd"
   xmlns="http://www.w3.org/2000/svg"
   xmlns:svg="http://www.w3.org/2000/svg">
  <defs
     id="defs2302" />
  <sodipodi:namedview
     id="namedview2300"
     pagecolor="#ffffff"
     bordercolor="#cccccc"
     borderopacity="1"
     inkscape:showpageshadow="0"
     inkscape:pageopacity="1"
     inkscape:pagecheckerboard="0"
     inkscape:deskcolor="#d1d1d1"
     showgrid="false"
     showguides="true"
     inkscape:zoom="1"
     inkscape:cx="54.5"
     inkscape:cy="207.5"
     inkscape:window-width="1854"
     inkscape:window-height="1131"
     inkscape:window-x="0"
     inkscape:window-y="0"
     inkscape:window-maximized="1"
     inkscape:current-layer="g2304">
    <sodipodi:guide
       position="151.12696,15.385494"
       orientation="0,-1"
       id="guide4573"
       inkscape:locked="false" />
    <sodipodi:guide
       position="172.14391,33.012612"
       orientation="0,-1"
       id="guide4575"
       inkscape:locked="false" />
    <sodipodi:guide
       position="287.5,4.7421882"
       orientation="0,-1"
       id="guide8292"
       inkscape:locked="false" />
  </sodipodi:namedview>
  <g
     inkscape:groupmode="layer"
     inkscape:label="Image"
     id="g2304"
     transform="translate(-28.873037,-57.833984)">
    <path
       id="rect4740"
       style="fill:#2563eb;fill-opacity:1;stroke-width:0.704135"
       d="M 66.710928 57.833984 C 64.019381 57.833984 61.853506 59.999862 61.853506 62.691406 L 61.853506 69.90625 C 61.853506 70.083205 61.882111 70.251889 61.900381 70.423828 L 61.849599 70.509765 L 61.849599 126.77148 C 61.849599 176.554 62.037719 183.42556 63.470693 186.44531 C 65.487567 190.69559 70.212799 194.75623 74.029287 195.51953 C 75.623981 195.83847 76.797652 196.43614 76.638662 196.84766 C 76.479682 197.25919 65.66206 208.50481 52.599599 221.83594 C 39.537139 235.16705 28.860937 246.80638 28.873037 247.70312 C 28.869737 257.05794 32.857438 257.86839 36.042959 259.81055 C 39.312018 261.80364 40.773094 261.82617 159.8496 261.82617 C 278.9261 261.82617 280.38915 261.80366 283.65819 259.81055 C 286.76406 257.91695 290.8685 257.09266 290.86718 247.83398 C 290.86706 247.00831 279.54917 235.24384 265.64062 221.68945 L 240.35155 197.04492 L 244.55663 195.91406 C 249.70521 194.52769 254.07875 190.97972 256.23046 186.44531 C 257.66339 183.42567 257.8496 176.55832 257.8496 126.82031 L 257.8496 70.607422 L 257.79882 70.517578 C 257.82432 70.315821 257.85546 70.115402 257.85546 69.90625 L 257.85546 62.691406 C 257.85546 59.999862 255.68763 57.833984 252.99608 57.833984 L 245.17382 57.833984 L 74.623037 57.833984 L 66.710928 57.833984 z M 79.216787 70.814453 L 240.52343 70.814453 C 243.18666 70.814453 245.33007 72.959797 245.33007 75.623047 L 245.33007 178.89844 C 245.33007 181.56167 243.18666 183.70508 240.52343 183.70508 L 79.216787 183.70508 C 76.553538 183.70508 74.410146 181.56167 74.410146 178.89844 L 74.410146 75.623047 C 74.410146 72.959797 76.553538 70.814453 79.216787 70.814453 z M 86.306631 204.83398 L 159.8496 204.83398 L 233.39452 204.83398 L 241.8496 213.33398 L 250.30663 221.83398 L 159.8496 221.83398 L 69.394521 221.83398 L 77.849599 213.33398 L 86.306631 204.83398 z M 185.61913 228.8125 L 193.03319 246.42578 L 127.90624 246.42187 L 135.01757 228.93164 L 185.61913 228.8125 z " />
    <g
       aria-label="stats"
       id="text3136"
       style="font-size:3.175px;fill:#2563eb;fill-opacity:1;stroke-width:3"
       transform="matrix(9.0453918,0,0,9.1601162,-234.25095,-356.63247)">
      <path
         d="m 40.383365,52.305375 v 0.269751 q -0.120923,-0.06201 -0.251148,-0.09302 -0.130224,-0.03101 -0.269751,-0.03101 -0.21239,0 -0.31936,0.06511 -0.10542,0.06511 -0.10542,0.195337 0,0.09922 0.07597,0.156579 0.07596,0.05581 0.305407,0.10697 l 0.09767,0.0217 q 0.303857,0.06511 0.430981,0.184484 0.128674,0.117823 0.128674,0.330213 0,0.241846 -0.192236,0.382922 -0.190686,0.141077 -0.525549,0.141077 -0.139527,0 -0.291455,-0.02791 -0.150379,-0.02635 -0.31781,-0.08062 v -0.294555 q 0.15813,0.08216 0.311609,0.124023 0.153479,0.04031 0.303857,0.04031 0.201538,0 0.310059,-0.06821 0.10852,-0.06976 0.10852,-0.195337 0,-0.116272 -0.07906,-0.178284 -0.07751,-0.06201 -0.342615,-0.119372 l -0.09922,-0.02325 q -0.2651,-0.05581 -0.382923,-0.170532 -0.117822,-0.116272 -0.117822,-0.31781 0,-0.244946 0.173633,-0.378271 0.173633,-0.133326 0.492993,-0.133326 0.15813,0 0.297656,0.02326 0.139527,0.02325 0.257349,0.06976 z"
         style="font-family:'DejaVu Sans';-inkscape-font-specification:'DejaVu Sans';fill:#2563eb;fill-opacity:1"
         id="path3188" />
      <path
         d="m 41.212772,48.057055 v 3.667993 h 2.393607 v 0.221692 h -2.393607 v 1.471745 c 0,0.141593 0.01912,0.232544 0.05736,0.272852 0.03927,0.04031 0.118338,0.06046 0.237195,0.06046 h 0.293006 v 0.238745 h -0.293006 c -0.220141,0 -0.37207,-0.04082 -0.455786,-0.122473 -0.08372,-0.08268 -0.125574,-0.232544 -0.125574,-0.449585 v -1.471745 h -0.738456 v -0.221692 h 0.738456 v -3.667993 z"
         style="font-family:'DejaVu Sans';-inkscape-font-specification:'DejaVu Sans';fill:#2563eb;fill-opacity:1"
         id="path3190"
         sodipodi:nodetypes="cccccscsccscscccccc" />
      <path
         d="m 42.964603,53.117728 q -0.345716,0 -0.479041,0.07906 -0.133325,0.07906 -0.133325,0.269751 0,0.151929 0.09922,0.241846 0.100769,0.08837 0.272851,0.08837 0.237195,0 0.379822,-0.167432 0.144177,-0.168982 0.144177,-0.448035 v -0.06356 z m 0.568957,-0.117822 v 0.990637 h -0.285254 v -0.263549 q -0.09767,0.158129 -0.243396,0.234094 -0.145727,0.07441 -0.356567,0.07441 -0.266651,0 -0.42478,-0.148828 -0.15658,-0.150379 -0.15658,-0.401526 0,-0.293006 0.195337,-0.441834 0.196887,-0.148828 0.586011,-0.148828 h 0.399975 v -0.02791 q 0,-0.196887 -0.130224,-0.303857 -0.128675,-0.108521 -0.362769,-0.108521 -0.148828,0 -0.289905,0.03566 -0.141076,0.03566 -0.271301,0.10697 v -0.26355 q 0.15658,-0.06046 0.303857,-0.08992 0.147278,-0.03101 0.286805,-0.03101 0.376721,0 0.562756,0.195337 0.186035,0.195337 0.186035,0.592212 z"
         style="font-family:'DejaVu Sans';-inkscape-font-specification:'DejaVu Sans';fill:#2563eb;fill-opacity:1"
         id="path3192" />
      <path
         d="m 44.403275,48.057055 v 3.667993 h 0.587561 v 0.221692 h -0.587561 v 1.471745 c 0,0.141593 0.01912,0.232544 0.05736,0.272852 0.03927,0.04031 0.118338,0.06046 0.237195,0.06046 h 0.293006 v 0.238745 H 44.69783 c -0.220141,0 -0.37207,-0.04082 -0.455786,-0.122473 -0.08372,-0.08268 -0.125574,-0.232544 -0.125574,-0.449585 v -1.471745 h -0.209289 v -0.221692 h 0.209289 v -3.667993 z"
         style="font-family:'DejaVu Sans';-inkscape-font-specification:'DejaVu Sans';fill:#2563eb;fill-opacity:1"
         id="path3194"
         sodipodi:nodetypes="cccccscsccscscccccc" />
      <path
         d="m 46.472915,52.305375 v 0.269751 q -0.120923,-0.06201 -0.251147,-0.09302 -0.130225,-0.03101 -0.269751,-0.03101 -0.21239,0 -0.31936,0.06511 -0.10542,0.06511 -0.10542,0.195337 0,0.09922 0.07596,0.156579 0.07596,0.05581 0.305408,0.10697 l 0.09767,0.0217 q 0.303858,0.06511 0.430982,0.184484 0.128674,0.117823 0.128674,0.330213 0,0.241846 -0.192236,0.382922 -0.190686,0.141077 -0.52555,0.141077 -0.139526,0 -0.291455,-0.02791 -0.150378,-0.02635 -0.31781,-0.08062 v -0.294555 q 0.15813,0.08216 0.311609,0.124023 0.153479,0.04031 0.303857,0.04031 0.201539,0 0.310059,-0.06821 0.108521,-0.06976 0.108521,-0.195337 0,-0.116272 -0.07906,-0.178284 -0.07751,-0.06201 -0.342615,-0.119372 l -0.09922,-0.02325 q -0.2651,-0.05581 -0.382922,-0.170532 -0.117822,-0.116272 -0.117822,-0.31781 0,-0.244946 0.173632,-0.378271 0.173633,-0.133326 0.492993,-0.133326 0.15813,0 0.297657,0.02326 0.139526,0.02325 0.257348,0.06976 z"
         style="font-family:'DejaVu Sans';-inkscape-font-specification:'DejaVu Sans';fill:#2563eb;fill-opacity:1"
         id="path3196" />
      <text
         xml:space="preserve"
         style="font-style:normal;font-variant:normal;font-weight:normal;font-stretch:normal;font-size:3.17495px;font-family:'DejaVu Sans';-inkscape-font-specification:'DejaVu Sans';fill:#2563eb;fill-opacity:1;stroke-width:11.3384"
         x="38.860989"
         y="52.68261"
         id="text3201"><tspan
           sodipodi:role="line"
           id="tspan3199"
           style="fill:#2563eb;fill-opacity:1;stroke-width:11.3384"
           x="38.860989"
           y="52.68261" /><tspan
           sodipodi:role="line"
           style="fill:#2563eb;fill-opacity:1;stroke-width:11.3384"
           x="38.860989"
           y="56.651299"
           id="tspan3307">rugby</tspan></text>
    </g>
  </g>
</svg>
