<?xml version="1.0" encoding="UTF-8" standalone="no"?>
<svg
   height="533.33331"
   width="530.78247"
   viewBox="-83.77245 -140.29175 321.13574 561.16698"
   version="1.1"
   id="svg2427"
   sodipodi:docname="WhatsApp.svg"
   inkscape:version="1.2.2 (b0a8486541, 2022-12-01)"
   xmlns:inkscape="http://www.inkscape.org/namespaces/inkscape"
   xmlns:sodipodi="http://sodipodi.sourceforge.net/DTD/sodipodi-0.dtd"
   xmlns="http://www.w3.org/2000/svg"
   xmlns:svg="http://www.w3.org/2000/svg">
  <defs
     id="defs2431" />
  <sodipodi:namedview
     id="namedview2429"
     pagecolor="#ffffff"
     bordercolor="#cccccc"
     borderopacity="1"
     inkscape:showpageshadow="0"
     inkscape:pageopacity="1"
     inkscape:pagecheckerboard="0"
     inkscape:deskcolor="#d1d1d1"
     showgrid="false"
     inkscape:zoom="0.295"
     inkscape:cx="266.10169"
     inkscape:cy="269.49153"
     inkscape:window-width="1854"
     inkscape:window-height="1131"
     inkscape:window-x="0"
     inkscape:window-y="0"
     inkscape:window-maximized="1"
     inkscape:current-layer="svg2427" />
  <path
     d="m 204.73891,195.99124 c -6.948,-3.478 -41.108,-20.284 -47.477,-22.606 -6.368,-2.318 -11,-3.476 -15.632,3.478 -4.632,6.954 -17.948,22.606 -22.001,27.244 -4.052,4.636 -8.106,5.218 -15.054,1.738 -6.948,-3.477 -29.336,-10.813 -55.873995,-34.486 -20.655,-18.424 -34.6,-41.176 -38.652,-48.132 -4.0540002,-6.956 -0.4340002,-10.716 3.045,-14.18 3.127,-3.114 6.95,-8.116 10.423,-12.174 3.474,-4.056 4.632,-6.956 6.948,-11.59 2.316,-4.639 1.158,-8.695 -0.58,-12.172 -1.736,-3.478 -15.632,-37.679 -21.4220002,-51.592 -5.64,-13.547 -11.368,-11.712 -15.633,-11.927 -4.0479998,-0.201 -8.6849998,-0.244 -13.3159998,-0.244 -4.632,0 -12.16,1.739 -18.53,8.693 -6.367,6.956 -24.317,23.767 -24.317,57.964 0,34.202 24.896,67.239 28.371,71.876 3.475,4.639 48.993,74.818 118.694995,104.914 16.576,7.16 29.518,11.434 39.609,14.636 16.644,5.289 31.79,4.542 43.763,2.753 13.349,-1.993 41.108,-16.807 46.898,-33.036 5.79,-16.233 5.79,-30.144 4.052,-33.041 -1.736,-2.899 -6.368,-4.638 -13.316,-8.116 m -126.776,173.1 h -0.093 c -41.472995,-0.016 -82.1499952,-11.159 -117.635995,-32.216 l -8.44,-5.01 -87.475005,22.947 23.348,-85.288 -5.494,-8.745 c -23.136,-36.798 -35.356,-79.328 -35.338,-123 0.051,-127.431 103.734005,-231.106 231.22,-231.106 61.734,0.022 119.763,24.094 163.402,67.782 43.636,43.685 67.653,101.754 67.629,163.51 -0.052,127.442 -103.733,231.126 -231.123,231.126 m 196.704,-427.833 c -52.5,-52.561 -122.318,-81.52 -196.706,-81.55 -153.270995,0 -278.015,124.736 -278.077,278.053 -0.02,49.011 12.784,96.847 37.118,139.019 l -39.448,144.095 147.410005,-38.668 c 40.617,22.153 86.346,33.83 132.885995,33.845 h 0.115 c 153.254,0 278.009,-124.748 278.07199,-278.068 0.028,-74.301 -28.87,-144.165 -81.36999,-196.725"
     fill="#455a64"
     fill-rule="evenodd"
     id="path2425"
     style="fill:#2563eb;fill-opacity:1" />
</svg>
